<svg width="1452" height="522" viewBox="0 0 1452 522" fill="none" xmlns="http://www.w3.org/2000/svg">
<rect width="1452" height="522" fill="white"/>
<path d="M449.5 259C449.5 109.8 611 117 702.5 117C834 134 881 209.5 883.5 259C883.5 334.494 821.2 365.199 781.395 373.227C775.427 374.431 771.338 380.284 772.833 386.186L783.841 429.653C785.989 438.135 776.977 445.091 769.316 440.864L704.755 405.244C703.276 404.428 701.564 404.002 699.875 403.994C507.205 403.13 452.652 307.115 449.5 259Z" stroke="#3E7C6D" stroke-width="8"/>
<path d="M449.5 259C449.5 109.8 611 117 702.5 117C834 134 881 209.5 883.5 259C883.5 334.494 821.2 365.199 781.395 373.227C775.427 374.431 771.338 380.284 772.833 386.186L783.841 429.653C785.989 438.135 776.977 445.091 769.316 440.864L704.755 405.244C703.276 404.428 701.564 404.002 699.875 403.994C507.205 403.13 452.652 307.115 449.5 259Z" stroke="#3E7C6D" stroke-width="8"/>
<circle cx="580" cy="261" r="25" fill="#3E7C6D"/>
<circle cx="667" cy="261" r="25" fill="#3E7C6D"/>
<path d="M779 261C779 274.807 767.807 286 754 286C740.193 286 729 274.807 729 261C729 247.193 740.193 236 754 236C767.807 236 779 247.193 779 261Z" fill="#3E7C6D"/>
<path d="M1198.76 146.026C1198.76 37.8185 1081.63 43.0405 1015.27 43.0404C919.9 55.3697 885.813 110.126 884 146.026C884 198.856 926.065 221.443 954.953 228.195C960.882 229.58 964.978 235.439 963.483 241.342L957.833 263.653C955.685 272.135 964.697 279.091 972.358 274.864L1013.02 252.432C1014.49 251.616 1016.2 251.19 1017.89 251.18C1157.04 250.318 1196.48 180.862 1198.76 146.026Z" stroke="#3E7C6D" stroke-width="8"/>
<path d="M1198.76 146.026C1198.76 37.8185 1081.63 43.0405 1015.27 43.0404C919.9 55.3697 885.813 110.126 884 146.026C884 198.856 926.065 221.443 954.953 228.195C960.882 229.58 964.978 235.439 963.483 241.342L957.833 263.653C955.685 272.135 964.697 279.091 972.358 274.864L1013.02 252.432C1014.49 251.616 1016.2 251.19 1017.89 251.18C1157.04 250.318 1196.48 180.862 1198.76 146.026Z" stroke="#3E7C6D" stroke-width="8"/>
<circle r="18.1313" transform="matrix(-1 0 0 1 1104.11 147.477)" fill="#3E7C6D"/>
<circle r="18.1313" transform="matrix(-1 0 0 1 1041.02 147.477)" fill="#3E7C6D"/>
<path d="M959.789 147.477C959.789 157.491 967.907 165.608 977.92 165.608C987.934 165.608 996.052 157.491 996.052 147.477C996.052 137.463 987.934 129.346 977.92 129.346C967.907 129.346 959.789 137.463 959.789 147.477Z" fill="#3E7C6D"/>
<path d="M120 147.026C120 38.8185 237.128 44.0405 303.489 44.0404C398.86 56.3697 432.946 111.126 434.76 147.026C434.76 199.856 392.694 222.443 363.807 229.195C357.878 230.58 353.782 236.439 355.276 242.342L360.927 264.653C363.075 273.135 354.063 280.091 346.402 275.864L305.744 253.432C304.265 252.616 302.556 252.19 300.867 252.18C161.715 251.318 122.282 181.862 120 147.026Z" stroke="#3E7C6D" stroke-width="8"/>
<path d="M120 147.026C120 38.8185 237.128 44.0405 303.489 44.0404C398.86 56.3697 432.946 111.126 434.76 147.026C434.76 199.856 392.694 222.443 363.807 229.195C357.878 230.58 353.782 236.439 355.276 242.342L360.927 264.653C363.075 273.135 354.063 280.091 346.402 275.864L305.744 253.432C304.265 252.616 302.556 252.19 300.867 252.18C161.715 251.318 122.282 181.862 120 147.026Z" stroke="#3E7C6D" stroke-width="8"/>
<circle cx="214.645" cy="148.477" r="18.1313" fill="#3E7C6D"/>
<circle cx="277.742" cy="148.477" r="18.1313" fill="#3E7C6D"/>
<path d="M358.971 148.477C358.971 158.491 350.853 166.608 340.839 166.608C330.826 166.608 322.708 158.491 322.708 148.477C322.708 138.463 330.826 130.346 340.839 130.346C350.853 130.346 358.971 138.463 358.971 148.477Z" fill="#3E7C6D"/>
</svg>
