<svg width="833" height="661" viewBox="0 0 833 661" fill="none" xmlns="http://www.w3.org/2000/svg">
<path d="M44.5742 461H756.577C784.742 461 839.333 432.42 832.375 318.102C825.416 203.784 740.009 175.205 698.175 175.205C697.554 116.803 650.833 0 468.918 0C287.003 0 237.382 116.803 235.311 175.205C200.519 160.087 113.662 147.122 44.5742 216.21C-24.5137 285.298 -1.40161 421.859 44.5742 461Z" fill="#D5D6DB"/>
<line x1="94.0193" y1="637.603" x2="176.603" y2="487.981" stroke="#5AC8FA" stroke-width="5" stroke-linecap="round"/>
<line x1="245.019" y1="626.603" x2="327.603" y2="476.981" stroke="#5AC8FA" stroke-width="5" stroke-linecap="round"/>
<line x1="407.019" y1="657.603" x2="489.603" y2="507.981" stroke="#5AC8FA" stroke-width="5" stroke-linecap="round"/>
<path d="M566.416 626.603L649 476.981" stroke="#5AC8FA" stroke-width="5" stroke-linecap="round"/>
<line x1="684.124" y1="657.575" x2="745.575" y2="553.876" stroke="#5AC8FA" stroke-width="5" stroke-linecap="round"/>
</svg>
