<svg width="900" height="831" viewBox="0 0 900 831" fill="none" xmlns="http://www.w3.org/2000/svg">
<ellipse cx="566.5" cy="118" rx="92.5" ry="93" fill="black"/>
<path d="M198.327 453.365L218.782 281.08C219.179 277.735 221.234 274.814 224.248 273.311L334.497 218.318L456.689 174.728C459.729 173.643 463.105 174.093 465.756 175.934L568.291 247.185C568.855 247.577 569.377 248.026 569.849 248.525L696.205 382.109C698.094 384.106 700.721 385.238 703.47 385.238H734C739.523 385.238 744 389.715 744 395.238V426.598C744 432.121 739.523 436.598 734 436.598H675.599C672.981 436.598 670.468 435.571 668.599 433.739L558.623 325.93C553.413 320.823 544.664 322.833 542.207 329.702L489.631 476.66C488.057 481.058 489.739 485.961 493.681 488.467L528.636 510.691C531.522 512.526 533.271 515.709 533.271 519.13V805C533.271 810.523 528.793 815 523.271 815H496.436C491.114 815 486.724 810.832 486.449 805.517L473.797 561.135C473.607 557.466 471.421 554.196 468.102 552.619L397.326 518.991C391.545 516.244 384.708 519.559 383.284 525.799L319.084 807.224C318.046 811.773 314 815 309.334 815H273.704C267.315 815 262.565 809.091 263.938 802.851L381.375 269.065C383.212 260.712 374.396 254.056 366.866 258.113L265.381 312.778C262.772 314.183 260.921 316.673 260.327 319.575L232.265 456.551C231.311 461.203 227.217 464.544 222.468 464.544H208.257C202.267 464.544 197.621 459.313 198.327 453.365Z" fill="black" stroke="black" stroke-width="8"/>
</svg>
