<svg width="900" height="900" viewBox="0 0 900 900" fill="none" xmlns="http://www.w3.org/2000/svg">
<path d="M617.021 695.611H384.561C214.148 695.611 76 557.464 76 387.05C76 265.864 146.938 155.898 257.345 105.934L302.5 85.5C404.42 51.6351 514.228 49.5537 617.358 79.5318L668.381 94.363C698.329 103.068 726.747 116.363 752.623 133.773C822.91 181.065 870.118 255.921 882.662 339.704C884.881 354.525 886 369.524 886 384.51V469.924C886 509.789 880.569 549.468 869.856 587.866C855.084 640.817 850.39 696.072 856.02 750.756L862.943 818L788.259 756.806C739.965 717.235 679.456 695.611 617.021 695.611Z" stroke="black" stroke-width="8"/>
<ellipse cx="351" cy="406.5" rx="35" ry="35.5" fill="black"/>
<ellipse cx="481" cy="406.5" rx="35" ry="35.5" fill="black"/>
<ellipse cx="611" cy="406.5" rx="35" ry="35.5" fill="black"/>
</svg>
